<?xml version="1.0" standalone="no"?>
<!DOCTYPE svg PUBLIC "-//W3C//DTD SVG 20010904//EN"
 "http://www.w3.org/TR/2001/REC-SVG-20010904/DTD/svg10.dtd">
<svg version="1.0" xmlns="http://www.w3.org/2000/svg"
 width="512.000000pt" height="512.000000pt" viewBox="0 0 512.000000 512.000000"
 preserveAspectRatio="xMidYMid meet">
<metadata>
Created by potrace 1.14, written by Peter Selinger 2001-2017
</metadata>
<g transform="translate(0.000000,512.000000) scale(0.100000,-0.100000)"
fill="#000000" stroke="none">
<path d="M2014 5105 c-87 -27 -176 -101 -212 -176 -37 -78 -44 -103 -47 -185
-10 -213 110 -410 370 -604 90 -67 234 -150 261 -150 25 0 161 77 245 139 67
49 83 77 68 117 -5 15 6 32 49 76 47 48 58 55 75 47 73 -40 189 161 191 331 1
99 -9 154 -39 217 -61 124 -166 191 -310 199 -96 5 -179 -19 -251 -73 l-30
-23 -41 30 c-23 17 -60 37 -84 46 -57 20 -192 25 -245 9z"/>
<path d="M1825 3879 c-42 -12 -99 -62 -119 -103 -14 -31 -17 -89 -18 -488 l-1
-453 -31 -35 c-114 -131 -164 -209 -239 -380 -19 -43 -56 -179 -65 -240 -15
-99 -8 -318 13 -420 23 -110 48 -149 96 -150 23 0 28 -7 46 -70 l21 -69 -23
-15 c-44 -29 -40 -50 86 -456 l33 -105 1 -415 c1 -228 5 -424 8 -436 4 -12 19
-26 33 -32 37 -18 1553 -16 1575 1 28 22 32 51 33 265 l1 214 25 20 c14 11 34
28 45 37 33 26 110 123 138 171 30 52 73 177 81 235 3 22 5 126 6 232 l0 191
43 21 c57 27 111 82 139 140 20 41 23 64 26 201 3 146 2 156 -18 178 -11 12
-27 22 -35 22 -15 0 -17 10 -17 95 0 65 0 65 20 65 9 0 25 12 35 26 17 22 18
44 15 222 -3 183 -5 200 -26 240 -34 64 -80 108 -146 138 -51 23 -68 26 -130
22 -39 -3 -85 -12 -102 -21 l-31 -16 -18 39 c-24 54 -90 119 -145 144 -58 27
-189 29 -237 3 -18 -9 -36 -17 -40 -17 -4 0 -17 20 -27 43 -11 23 -40 63 -64
89 l-44 47 152 152 c83 84 158 166 167 183 97 187 -8 406 -213 443 -57 11
-139 -3 -194 -31 -19 -10 -104 -87 -188 -170 -84 -83 -156 -151 -160 -150 -4
0 -14 18 -22 40 -58 149 -163 259 -317 331 -72 33 -112 39 -168 22z"/>
</g>
</svg>
